<?xml version="1.0" encoding="iso-8859-1"?>
<!-- Generator: Adobe Illustrator 19.0.0, SVG Export Plug-In . SVG Version: 6.00 Build 0)  -->
<svg version="1.1" id="Layer_1" xmlns="http://www.w3.org/2000/svg" xmlns:xlink="http://www.w3.org/1999/xlink" x="0px" y="0px"
	 viewBox="0 0 512 512" height="256" width="256" style="enable-background:new 0 0 512 512;fill: white;" xml:space="preserve">
<g>
	<g>
		<path d="M256,102.4c-56.55,0-102.4,45.85-102.4,102.4c0,30.66,13.747,57.856,35.098,76.621l9.19-26.419
			c-0.239-0.273-0.051-0.503-0.171-0.768C186.334,240.836,179.2,223.718,179.2,204.8c0-42.351,34.449-76.8,76.8-76.8
			c42.351,0,76.8,34.449,76.8,76.8c0,18.918-7.134,36.036-18.517,49.434c-0.12,0.256,0.068,0.495-0.171,0.768l9.19,26.419
			c21.35-18.765,35.098-45.961,35.098-76.621C358.4,148.25,312.559,102.4,256,102.4z"/>
	</g>
</g>
<g>
	<g>
		<path d="M370.483,495.002l-86.118-247.603c13.756-9.182,22.835-24.815,22.835-42.598c0-28.279-22.921-51.2-51.2-51.2
			c-28.279,0-51.2,22.921-51.2,51.2c0,17.784,9.079,33.417,22.835,42.598l-86.127,247.603c-2.321,6.673,1.203,13.978,7.885,16.299
			c1.391,0.478,2.807,0.7,4.207,0.7c5.299,0,10.249-3.302,12.092-8.602L184.96,448h142.089l19.268,55.398
			c1.835,5.299,6.784,8.602,12.083,8.602c1.399,0,2.816-0.222,4.198-0.7C369.289,508.979,372.813,501.675,370.483,495.002z
			 M256,179.2c14.114,0,25.6,11.486,25.6,25.6s-11.486,25.6-25.6,25.6s-25.6-11.486-25.6-25.6S241.886,179.2,256,179.2z
			 M251.887,255.582c1.374,0.111,2.705,0.418,4.113,0.418s2.739-0.307,4.113-0.418L291.43,345.6h-70.852L251.887,255.582z
			 M193.86,422.4l17.809-51.2h88.661l17.809,51.2H193.86z"/>
	</g>
</g>
<g>
	<g>
		<path d="M256,0C142.891,0,51.2,91.691,51.2,204.8c0,75.802,41.293,141.824,102.502,177.237l8.619-24.772
			C111.113,325.692,76.8,269.252,76.8,204.8c0-98.816,80.393-179.2,179.2-179.2s179.2,80.384,179.2,179.2
			c0,64.452-34.313,120.892-85.521,152.474l8.61,24.772C419.507,346.633,460.8,280.61,460.8,204.8C460.8,91.691,369.109,0,256,0z"/>
	</g>
</g>
<g>
	<g>
		<path d="M256,51.2c-84.83,0-153.6,68.77-153.6,153.6c0,53.333,27.213,100.292,68.489,127.829l8.9-25.6
			C148.54,283.674,128,246.724,128,204.8c0-70.579,57.421-128,128-128s128,57.421,128,128c0,41.924-20.54,78.874-51.789,102.238
			l8.9,25.591C382.387,305.092,409.6,258.142,409.6,204.8C409.6,119.97,340.83,51.2,256,51.2z"/>
	</g>
</g>
<g>
</g>
<g>
</g>
<g>
</g>
<g>
</g>
<g>
</g>
<g>
</g>
<g>
</g>
<g>
</g>
<g>
</g>
<g>
</g>
<g>
</g>
<g>
</g>
<g>
</g>
<g>
</g>
<g>
</g>
</svg>
